{
  "asset": {
    "generator": "Khronos glTF Blender I/O v4.2.60",
    "version": "2.0"
  },
  "scene": 0,
  "scenes": [
    {
      "name": "Scene",
      "nodes": [
        0
      ]
    }
  ],
  "nodes": [
    {
      "mesh": 0,
      "name": "horse_head"
    }
  ],
  "materials": [
    {
      "doubleSided": true,
      "name": "horse_head",
      "normalTexture": {
        "index": 0
      },
      "pbrMetallicRoughness": {
        "baseColorTexture": {
          "index": 1
        },
        "metallicRoughnessTexture": {
          "index": 2
        }
      }
    }
  ],
  "meshes": [
    {
      "name": "BSurfaceMesh.001",
      "primitives": [
        {
          "attributes": {
            "POSITION": 0,
            "NORMAL": 1,
            "TEXCOORD_0": 2
          },
          "indices": 3,
          "material": 0
        }
      ]
    }
  ],
  "textures": [
    {
      "sampler": 0,
      "source": 0
    },
    {
      "sampler": 0,
      "source": 1
    },
    {
      "sampler": 0,
      "source": 2
    }
  ],
  "images": [
    {
      "mimeType": "image/jpeg",
      "name": "horse_head_nor_gl",
      "uri": "textures/horse_head_nor_gl_1k.jpg"
    },
    {
      "mimeType": "image/jpeg",
      "name": "horse_head_diff",
      "uri": "textures/horse_head_diff_1k.jpg"
    },
    {
      "mimeType": "image/jpeg",
      "name": "horse_head_metal-horse_head_rough",
      "uri": "textures/horse_head_arm_1k.jpg"
    }
  ],
  "accessors": [
    {
      "bufferView": 0,
      "componentType": 5126,
      "count": 6902,
      "max": [
        0.1075192391872406,
        0.41870254278182983,
        0.22301456332206726
      ],
      "min": [
        -0.10740669071674347,
        0.000024927299818955362,
        -0.11109993606805801
      ],
      "type": "VEC3"
    },
    {
      "bufferView": 1,
      "componentType": 5126,
      "count": 6902,
      "type": "VEC3"
    },
    {
      "bufferView": 2,
      "componentType": 5126,
      "count": 6902,
      "type": "VEC2"
    },
    {
      "bufferView": 3,
      "componentType": 5123,
      "count": 36204,
      "type": "SCALAR"
    }
  ],
  "bufferViews": [
    {
      "buffer": 0,
      "byteLength": 82824,
      "byteOffset": 0,
      "target": 34962
    },
    {
      "buffer": 0,
      "byteLength": 82824,
      "byteOffset": 82824,
      "target": 34962
    },
    {
      "buffer": 0,
      "byteLength": 55216,
      "byteOffset": 165648,
      "target": 34962
    },
    {
      "buffer": 0,
      "byteLength": 72408,
      "byteOffset": 220864,
      "target": 34963
    }
  ],
  "samplers": [
    {
      "magFilter": 9729,
      "minFilter": 9987
    }
  ],
  "buffers": [
    {
      "byteLength": 293272,
      "uri": "horse_head.bin"
    }
  ]
}