{
  "asset": {
    "generator": "Khronos glTF Blender I/O v4.2.60",
    "version": "2.0"
  },
  "scene": 0,
  "scenes": [
    {
      "name": "Scene",
      "nodes": [
        0
      ]
    }
  ],
  "nodes": [
    {
      "mesh": 0,
      "name": "lion_head"
    }
  ],
  "materials": [
    {
      "doubleSided": true,
      "name": "lion_head",
      "normalTexture": {
        "index": 0
      },
      "pbrMetallicRoughness": {
        "baseColorTexture": {
          "index": 1
        },
        "metallicRoughnessTexture": {
          "index": 2
        }
      }
    }
  ],
  "meshes": [
    {
      "name": "Plane.002",
      "primitives": [
        {
          "attributes": {
            "POSITION": 0,
            "NORMAL": 1,
            "TEXCOORD_0": 2
          },
          "indices": 3,
          "material": 0
        }
      ]
    }
  ],
  "textures": [
    {
      "sampler": 0,
      "source": 0
    },
    {
      "sampler": 0,
      "source": 1
    },
    {
      "sampler": 0,
      "source": 2
    }
  ],
  "images": [
    {
      "mimeType": "image/jpeg",
      "name": "lion_head_nor_gl",
      "uri": "textures/lion_head_nor_gl_1k.jpg"
    },
    {
      "mimeType": "image/jpeg",
      "name": "lion_head_diff",
      "uri": "textures/lion_head_diff_1k.jpg"
    },
    {
      "mimeType": "image/jpeg",
      "name": "lion_head_metal-lion_head_rough",
      "uri": "textures/lion_head_arm_1k.jpg"
    }
  ],
  "accessors": [
    {
      "bufferView": 0,
      "componentType": 5126,
      "count": 25380,
      "max": [
        0.15855319797992706,
        0.43636494874954224,
        0.10328715294599533
      ],
      "min": [
        -0.16222509741783142,
        -1.07904245538748e-8,
        -0.10328713804483414
      ],
      "type": "VEC3"
    },
    {
      "bufferView": 1,
      "componentType": 5126,
      "count": 25380,
      "type": "VEC3"
    },
    {
      "bufferView": 2,
      "componentType": 5126,
      "count": 25380,
      "type": "VEC2"
    },
    {
      "bufferView": 3,
      "componentType": 5123,
      "count": 141642,
      "type": "SCALAR"
    }
  ],
  "bufferViews": [
    {
      "buffer": 0,
      "byteLength": 304560,
      "byteOffset": 0,
      "target": 34962
    },
    {
      "buffer": 0,
      "byteLength": 304560,
      "byteOffset": 304560,
      "target": 34962
    },
    {
      "buffer": 0,
      "byteLength": 203040,
      "byteOffset": 609120,
      "target": 34962
    },
    {
      "buffer": 0,
      "byteLength": 283284,
      "byteOffset": 812160,
      "target": 34963
    }
  ],
  "samplers": [
    {
      "magFilter": 9729,
      "minFilter": 9987
    }
  ],
  "buffers": [
    {
      "byteLength": 1095444,
      "uri": "lion_head.bin"
    }
  ]
}